General
Complete name                    : Tees Maar Khan (2010) 1CD S CAM Rip X264 imamzafar [TDBB]
Ripper                           : imamzafar[TEAM TDBB]
Source                           : M2TV thanks!!
Format                           : Matroska
File size                        : 698 MiB
Duration                         : 1h 58mn
Overall bit rate                 : 822 Kbps
Encoded date                     : UTC 2010-12-25 07:12:30
Writing library                  : libebml v0.7.7 + libmatroska v0.8.1

Video
ID                               : 1
Format                           : AVC
Format/Info                      : Advanced Video Codec
Format profile                   : High@L4.2
Format settings, CABAC           : Yes
Format settings, ReFrames        : 3 frames
Muxing mode                      : Container profile=Unknown@4.2
Codec ID                         : V_MPEG4/ISO/AVC
Duration                         : 1h 58mn
Bit rate mode                    : Variable
Bit rate                         : 693 Kbps
Maximum bit rate                 : 25.0 Mbps
Width                            : 592 pixels
Height                           : 256 pixels
Display aspect ratio             : 2.35:1
Frame rate                       : 25.000 fps
Color space                      : YUV
Chroma subsampling               : 4:2:0
Bit depth                        : 8 bits
Scan type                        : Progressive
Bits/(Pixel*Frame)               : 0.183
Stream size                      : 575 MiB (82%)
Writing library                  : x264 core 67 r1169M ab85c9b

Audio
ID                               : 2
Format                           : MPEG Audio
Format version                   : Version 1
Format profile                   : Layer 3
Codec ID                         : A_MPEG/L3
Codec ID/Hint                    : MP3
Duration                         : 1h 58mn
Bit rate mode                    : Constant
Bit rate                         : 128 Kbps
Channel(s)                       : 2 channels
Sampling rate                    : 48.0 KHz
Stream size                      : 109 MiB (16%)

